PathFileType	4	(X/Y/Z)	E:\Qualisys_Data\Carbon_Farble_Plate\Data\Amateur_Runner\S2\T2\S2T2V22_c3d.trc
DataRate	CameraRate	NumFrames	NumMarkers	Units	OrigDataRate	OrigDataStartFrame	OrigNumFrames
200.000000	200.000000	5	39	mm	200.000000	37	298
Frame#	Time	LSHO			RSHO			LICST			RICST			LASIS			LHEEL			RASIS			LTROC			RTROC			SACR			LTH1			LSK4			LTH2			LTH3			RHM5			LSK2			LTH4			RTH1			LTOE			RTH2			RTH3			RTH4			LLEP			RLEP			LSK1			LSK3			RSK1			LHM5			RSK2			LFT1			RSK3			RSK4			LLME			RLME			RTOE			RHEEL			RFT1			RFT2			LFT2			
		X1	Y1	Z1	X2	Y2	Z2	X3	Y3	Z3	X4	Y4	Z4	X5	Y5	Z5	X6	Y6	Z6	X7	Y7	Z7	X8	Y8	Z8	X9	Y9	Z9	X10	Y10	Z10	X11	Y11	Z11	X12	Y12	Z12	X13	Y13	Z13	X14	Y14	Z14	X15	Y15	Z15	X16	Y16	Z16	X17	Y17	Z17	X18	Y18	Z18	X19	Y19	Z19	X20	Y20	Z20	X21	Y21	Z21	X22	Y22	Z22	X23	Y23	Z23	X24	Y24	Z24	X25	Y25	Z25	X26	Y26	Z26	X27	Y27	Z27	X28	Y28	Z28	X29	Y29	Z29	X30	Y30	Z30	X31	Y31	Z31	X32	Y32	Z32	X33	Y33	Z33	X34	Y34	Z34	X35	Y35	Z35	X36	Y36	Z36	X37	Y37	Z37	X38	Y38	Z38	X39	Y39	Z39	

38	0.185	-2298.23291015625	1441.081787109375	-425.6654052734375	-2269.677734375	1403.960205078125	-109.4902267456055	-2379.760009765625	976.2337646484376	-427.7188415527344	-2369.99267578125	956.5972290039062	-124.2812423706055	-2322.23291015625	927.169677734375	-410.7271728515625	-2590.9326171875	486.3739624023438	-329.8901977539062	-2309.48095703125	909.5405883789062	-148.5377197265625	-2444.022705078125	852.3914184570312	-431.9751586914062	-2461.933349609375	859.902587890625	-126.4262008666992	-2458.12109375	1014.843627929688	-271.6270446777344	-2209.338134765625	684.5234375	-441.9042663574219	-2397.311279296875	511.4970092773438	-423.0108337402344	-2281.72216796875	642.7091674804688	-452.7163696289062	-2159.5078125	594.9404296875	-427.0233764648438	-2574.7900390625	81.63548278808594	-174.2293243408203	-2300.53564453125	530.76123046875	-440.7818908691406	-2235.35888671875	554.9220581054688	-429.7019653320312	-2353.94091796875	585.8272094726562	-133.0942230224609	-2519.78564453125	250.3112182617188	-370.2997741699219	-2431.994140625	591.6856079101562	-132.4772033691406	-2363.341064453125	488.2513427734375	-163.2514495849609	-2443.1318359375	498.7040405273438	-158.5373229980469	-2184.453369140625	529.3087768554688	-433.4490356445312	-2418.35107421875	457.2062377929688	-157.1764831542969	-2284.138916015625	454.7871704101562	-426.24169921875	-2381.406982421875	434.7029418945312	-414.8576965332031	-2447.79931640625	336.2143249511719	-167.2764892578125	-2560.57275390625	300.8144836425781	-423.649658203125	-2510.45361328125	383.3754272460938	-149.2610321044922	-2614.228271484375	466.40771484375	-306.7241821289062	-2511.31201171875	257.1287841796875	-182.827392578125	-2572.209716796875	305.8566589355469	-164.7411346435547	-2559.64501953125	435.3337707519531	-392.9280090332031	-2659.3642578125	144.4957275390625	-205.8716278076172	-2503.404296875	71.17704010009766	-233.1009368896484	-2731.384765625	144.8859710693359	-263.7314453125	-2723.882080078125	108.5469436645508	-288.6640625	-2740.689208984375	119.1608200073242	-236.2897033691406	-2622.520751953125	475.7386474609375	-360.0223999023438
39	0.19	-2280.2900390625	1445.504272460938	-426.3177795410156	-2246.376953125	1409.256103515625	-111.3023223876953	-2357.732177734375	980.7532958984376	-427.9149475097656	-2343.875	959.5409545898438	-123.5002059936523	-2299.310546875	931.8653564453124	-410.2985229492188	-2559.45947265625	471.3862609863281	-330.2507019042969	-2286.796630859375	911.83984375	-149.4738464355469	-2420.3388671875	857.4727783203125	-432.7899780273438	-2439.554443359375	863.6522827148438	-127.2447662353516	-2435.208984375	1018.328979492188	-270.3428039550781	-2184.411865234375	694.1217041015625	-441.042724609375	-2365.0966796875	506.1864929199219	-421.9099426269531	-2255.47314453125	649.8744506835938	-452.3839416503906	-2132.188232421875	605.5714111328125	-425.5985412597656	-2573.310302734375	82.54398345947266	-173.5101165771484	-2272.092041015625	533.7924194335938	-439.4794006347656	-2206.947509765625	564.0311279296875	-428.9382629394531	-2339.959716796875	589.4197387695312	-134.2623596191406	-2477.623046875	242.4351043701172	-372.3265075683594	-2416.88037109375	597.7807006835938	-132.5445709228516	-2354.178955078125	491.9853820800781	-162.4127044677734	-2433.709716796875	505.3760070800781	-158.2660980224609	-2156.16650390625	538.8109130859375	-432.1254577636719	-2410.138427734375	462.4815673828125	-157.2152099609375	-2251.608642578125	458.0908508300781	-425.9529724121094	-2349.0859375	434.6916809082031	-416.39404296875	-2442.65283203125	341.0924987792969	-165.9768981933594	-2518.794677734375	291.0286254882812	-423.9701232910156	-2504.78857421875	389.7988586425781	-149.6286163330078	-2583.79638671875	452.6085510253906	-307.0341491699219	-2506.10107421875	263.6592407226562	-181.0851593017578	-2567.536865234375	312.8610534667969	-164.1082916259766	-2527.69580078125	426.2104797363281	-394.4398803710938	-2655.089599609375	150.0805816650391	-204.5997161865234	-2502.9580078125	71.12528228759766	-232.6218566894531	-2727.548095703125	152.9512786865234	-263.137939453125	-2720.560791015625	116.0420227050781	-288.0956726074219	-2736.90576171875	125.860595703125	-235.7478485107422	-2593.142822265625	461.8132934570312	-359.6712036132812
40	0.195	-2262.079833984375	1450.270874023438	-426.5932006835938	-2224.029541015625	1414.579833984375	-113.1361083984375	-2336.144775390625	986.3642578125	-428.1564331054688	-2318.794921875	962.6683349609376	-124.2293395996094	-2276.885498046875	937.2297973632812	-410.7337646484375	-2531.724365234375	461.5120239257812	-330.98291015625	-2262.126953125	914.4281005859376	-150.3074035644531	-2397.2451171875	863.2191772460938	-434.8790588378906	-2417.264404296875	868.1920166015625	-128.0634460449219	-2411.9228515625	1022.115356445312	-269.5184631347656	-2159.1376953125	702.6578979492188	-440.6601867675781	-2338.589111328125	507.2126770019531	-421.8701171875	-2229.236572265625	657.412841796875	-451.3715209960938	-2105.584228515625	615.650634765625	-424.4909973144531	-2572.408447265625	83.3756103515625	-172.5564880371094	-2244.337646484375	536.6207885742188	-437.6533203125	-2179.257568359375	571.9189453125	-428.0147094726562	-2326.10009765625	592.633056640625	-135.2074432373047	-2433.11767578125	236.0629577636719	-372.4685974121094	-2402.314697265625	604.91748046875	-133.3368072509766	-2343.43310546875	495.5402221679688	-162.8880310058594	-2420.02490234375	512.6650390625	-155.5016174316406	-2128.2353515625	547.6115112304688	-430.6667785644531	-2402.142333984375	468.7828063964844	-156.9668579101562	-2220.28173828125	462.478759765625	-425.0400390625	-2317.11962890625	434.6119995117188	-416.2769775390625	-2435.821044921875	347.5420837402344	-164.2992248535156	-2475.530517578125	282.1610717773438	-423.443603515625	-2498.115478515625	396.6625671386719	-148.4496154785156	-2552.05126953125	438.5967712402344	-307.93212890625	-2500.77783203125	269.7574157714844	-179.3760375976562	-2561.51806640625	320.1994018554688	-163.1671447753906	-2493.50244140625	415.2380676269531	-393.8304748535156	-2649.82763671875	156.1713104248047	-202.8671417236328	-2502.33447265625	71.12017822265625	-232.1563568115234	-2722.74072265625	160.1731872558594	-262.1413879394531	-2715.881591796875	124.2065582275391	-287.2588806152344	-2733.076171875	133.3174896240234	-235.2673645019531	-2562.4384765625	446.2631530761719	-361.2315673828125
41	0.2	-2244.1201171875	1455.001953125	-427.6642761230469	-2200.841796875	1419.786987304688	-115.5569458007812	-2313.306884765625	991.7650146484376	-428.1603088378906	-2293.632080078125	966.2782592773438	-125.4733505249023	-2254.673095703125	942.6360473632812	-411.5199584960938	-2502.729248046875	450.3703002929688	-331.7999877929688	-2238.285400390625	917.3214721679688	-152.0666198730469	-2373.669677734375	868.5045166015625	-436.0403137207031	-2394.085205078125	872.9745483398438	-128.8223266601562	-2389.17822265625	1025.969970703125	-268.6939392089844	-2134.190673828125	711.553466796875	-440.0306396484375	-2312.942626953125	508.9033813476562	-422.7351379394531	-2203.543701171875	664.7937622070312	-450.9287719726562	-2079.273681640625	625.1926879882812	-423.5546875	-2570.330078125	84.23135375976562	-171.5744323730469	-2216.76953125	539.0278930664062	-436.2312927246094	-2151.649169921875	580.3656005859375	-427.5861206054688	-2311.27392578125	595.9141235351562	-136.1190643310547	-2388.81982421875	229.4711456298828	-373.3507995605469	-2388.19384765625	612.3853759765625	-134.6883544921875	-2332.259033203125	500.3518676757812	-162.4233856201172	-2408.7099609375	520.4716186523438	-155.4028625488281	-2100.7509765625	556.4547119140625	-429.4225463867188	-2392.2490234375	475.185791015625	-156.4163513183594	-2188.94921875	465.7327880859375	-424.58203125	-2284.85791015625	433.8006896972656	-415.5780029296875	-2428.27294921875	354.0339965820312	-162.8470916748047	-2432.50439453125	273.60009765625	-423.860107421875	-2491.606201171875	404.2228088378906	-147.9476165771484	-2520.807373046875	424.3735961914062	-308.6203308105469	-2494.263671875	276.9390563964844	-176.8760833740234	-2554.217041015625	327.7628784179688	-162.3397369384766	-2459.5234375	405.8473815917969	-393.3760070800781	-2644.53125	163.8964080810547	-200.9668273925781	-2501.38916015625	71.13587951660156	-231.6235504150391	-2716.588134765625	168.3341369628906	-260.0369262695312	-2710.81005859375	132.7290649414062	-286.3072814941406	-2728.093994140625	141.6434173583984	-234.4270477294922	-2531.08154296875	432.3967590332031	-361.4457092285156
42	0.205	-2226.09130859375	1459.969360351562	-427.783935546875	-2178.408203125	1425.367553710938	-117.157356262207	-2290.907470703125	996.879150390625	-428.6787719726562	-2268.4970703125	969.330078125	-126.1987915039062	-2231.901611328125	947.562255859375	-411.9303588867188	-2469.594482421875	435.1995849609375	-331.5273132324219	-2214.034912109375	920.1704711914062	-152.9432678222656	-2350.12939453125	874.4205932617188	-437.8478698730469	-2370.632568359375	877.6498413085938	-128.8046112060547	-2365.485595703125	1030.098510742188	-267.8327026367188	-2108.9970703125	719.7679443359375	-439.537841796875	-2281.198486328125	502.6133728027344	-421.3526306152344	-2177.798828125	672.127197265625	-450.9071044921875	-2052.83447265625	633.999755859375	-422.2928466796875	-2567.943603515625	85.04533386230469	-170.3050994873047	-2189.603759765625	541.2842407226562	-434.5988464355469	-2124.750732421875	588.501953125	-427.4285888671875	-2295.225830078125	600.3453979492188	-137.3280487060547	-2344.6552734375	223.5243377685547	-374.5490112304688	-2371.862548828125	619.4968872070312	-135.5808563232422	-2322.826904296875	503.6878662109375	-163.7802429199219	-2396.795654296875	528.3316040039062	-154.7476043701172	-2075.0703125	564.9405517578125	-429.4459228515625	-2382.47509765625	482.3886108398438	-155.3889312744141	-2158.8349609375	469.5921020507812	-424.1842346191406	-2253.041748046875	433.4512634277344	-415.6703796386719	-2420.402587890625	361.7144470214844	-160.6174621582031	-2389.442138671875	264.9254455566406	-424.0784606933594	-2482.83056640625	412.0070495605469	-146.7477874755859	-2487.6708984375	410.29052734375	-309.4305725097656	-2486.7978515625	284.3154296875	-175.0062408447266	-2546.62109375	336.20361328125	-160.8595886230469	-2425.646240234375	394.0748901367188	-394.4882202148438	-2637.85888671875	171.5958404541016	-199.4917297363281	-2499.811767578125	70.78743743896484	-229.679931640625	-2709.303466796875	178.1503448486328	-258.8186950683594	-2704.525146484375	142.4586181640625	-285.7916870117188	-2722.506591796875	151.551025390625	-234.0249481201172	-2498.129150390625	416.9235534667969	-361.7915954589844
